<svg width="40" height="40" viewBox="0 0 40 40" fill="none" xmlns="http://www.w3.org/2000/svg">
<circle cx="20" cy="20" r="19" stroke="#646464" stroke-width="2"/>
<path d="M19.009 24.106C18.9943 24.0327 18.987 23.952 18.987 23.864C18.987 23.776 18.987 23.6953 18.987 23.622C18.987 23.006 19.075 22.4633 19.251 21.994C19.4417 21.5247 19.669 21.0993 19.933 20.718C20.2117 20.322 20.505 19.9553 20.813 19.618C21.1357 19.2807 21.429 18.9433 21.693 18.606C21.9717 18.254 22.199 17.8873 22.375 17.506C22.5657 17.11 22.661 16.6627 22.661 16.164C22.661 15.4893 22.463 14.9393 22.067 14.514C21.6857 14.0887 21.0403 13.876 20.131 13.876C19.603 13.876 19.0677 13.9713 18.525 14.162C17.9823 14.338 17.513 14.5507 17.117 14.8L16.523 13.436C17.0803 13.0987 17.667 12.8347 18.283 12.644C18.899 12.4387 19.6617 12.336 20.571 12.336C21.2163 12.336 21.781 12.4313 22.265 12.622C22.7637 12.798 23.1743 13.0473 23.497 13.37C23.8343 13.6927 24.0837 14.074 24.245 14.514C24.4063 14.954 24.487 15.4233 24.487 15.922C24.487 16.582 24.3843 17.1613 24.179 17.66C23.9883 18.144 23.739 18.5913 23.431 19.002C23.1377 19.398 22.815 19.772 22.463 20.124C22.1257 20.476 21.803 20.85 21.495 21.246C21.2017 21.6273 20.9523 22.0453 20.747 22.5C20.5563 22.9547 20.461 23.49 20.461 24.106H19.009ZM18.569 26.988C18.569 26.592 18.679 26.284 18.899 26.064C19.1337 25.8293 19.4417 25.712 19.823 25.712C20.219 25.712 20.5343 25.8293 20.769 26.064C21.0037 26.284 21.121 26.592 21.121 26.988C21.121 27.3693 21.0037 27.6773 20.769 27.912C20.5343 28.1467 20.219 28.264 19.823 28.264C19.4417 28.264 19.1337 28.1467 18.899 27.912C18.679 27.6773 18.569 27.3693 18.569 26.988Z" fill="#646464"/>
</svg>
