<svg width="22" height="112" viewBox="0 0 22 112" fill="none" xmlns="http://www.w3.org/2000/svg">
<path d="M13.108 34.5987C13.108 35.1427 13.012 35.6307 12.82 36.0627C12.62 36.4947 12.352 36.8387 12.016 37.0947C11.68 37.3427 11.308 37.4787 10.9 37.5027L10.9 35.8107C11.156 35.7787 11.368 35.6547 11.536 35.4387C11.704 35.2147 11.788 34.9387 11.788 34.6107C11.788 34.2907 11.724 34.0427 11.596 33.8667C11.468 33.6827 11.304 33.5907 11.104 33.5907C10.888 33.5907 10.728 33.7027 10.624 33.9267C10.512 34.1427 10.392 34.4907 10.264 34.9707C10.144 35.4667 10.02 35.8747 9.892 36.1947C9.764 36.5067 9.568 36.7787 9.304 37.0107C9.04 37.2347 8.684 37.3467 8.236 37.3467C7.868 37.3467 7.532 37.2427 7.228 37.0347C6.924 36.8187 6.684 36.5147 6.508 36.1227C6.332 35.7227 6.244 35.2547 6.244 34.7187C6.244 33.9267 6.444 33.2947 6.844 32.8227C7.236 32.3507 7.768 32.0907 8.44 32.0427L8.44 33.6507C8.176 33.6747 7.968 33.7867 7.816 33.9867C7.656 34.1787 7.576 34.4387 7.576 34.7667C7.576 35.0707 7.632 35.3067 7.744 35.4747C7.856 35.6347 8.012 35.7147 8.212 35.7147C8.436 35.7147 8.608 35.6027 8.728 35.3787C8.84 35.1547 8.956 34.8067 9.076 34.3347C9.196 33.8547 9.32 33.4587 9.448 33.1467C9.576 32.8347 9.776 32.5667 10.048 32.3427C10.312 32.1107 10.664 31.9907 11.104 31.9827C11.488 31.9827 11.832 32.0907 12.136 32.3067C12.44 32.5147 12.68 32.8187 12.856 33.2187C13.024 33.6107 13.108 34.0707 13.108 34.5987ZM9.676 31.0356C8.988 31.0356 8.388 30.8956 7.876 30.6156C7.356 30.3356 6.956 29.9476 6.676 29.4516C6.388 28.9556 6.244 28.3876 6.244 27.7476C6.244 26.9236 6.452 26.2436 6.868 25.7076C7.276 25.1636 7.852 24.7996 8.596 24.6156L8.596 26.4276C8.308 26.5236 8.084 26.6876 7.924 26.9196C7.756 27.1436 7.672 27.4236 7.672 27.7596C7.672 28.2396 7.848 28.6196 8.2 28.8996C8.544 29.1796 9.036 29.3196 9.676 29.3196C10.308 29.3196 10.8 29.1796 11.152 28.8996C11.496 28.6196 11.668 28.2396 11.668 27.7596C11.668 27.0796 11.364 26.6356 10.756 26.4276L10.756 24.6156C11.476 24.7996 12.048 25.1636 12.472 25.7076C12.896 26.2516 13.108 26.9316 13.108 27.7476C13.108 28.3876 12.968 28.9556 12.688 29.4516C12.4 29.9476 12 30.3356 11.488 30.6156C10.968 30.8956 10.364 31.0356 9.676 31.0356ZM7.384 21.7049C7.032 21.4889 6.756 21.2089 6.556 20.8649C6.356 20.5129 6.256 20.1129 6.256 19.6649L8.02 19.6649L8.02 20.1089C8.02 20.6369 8.144 21.0369 8.392 21.3089C8.64 21.5729 9.072 21.7049 9.688 21.7049L13 21.7049L13 23.3849L6.352 23.3849L6.352 21.7049L7.384 21.7049ZM13.108 15.5813C13.108 16.2213 12.968 16.7973 12.688 17.3093C12.4 17.8213 11.996 18.2253 11.476 18.5213C10.956 18.8093 10.356 18.9533 9.676 18.9533C8.996 18.9533 8.396 18.8053 7.876 18.5093C7.356 18.2053 6.956 17.7933 6.676 17.2733C6.388 16.7533 6.244 16.1733 6.244 15.5333C6.244 14.8933 6.388 14.3133 6.676 13.7933C6.956 13.2733 7.356 12.8653 7.876 12.5693C8.396 12.2653 8.996 12.1133 9.676 12.1133C10.356 12.1133 10.956 12.2693 11.476 12.5813C11.996 12.8853 12.4 13.3013 12.688 13.8293C12.968 14.3493 13.108 14.9333 13.108 15.5813ZM11.644 15.5813C11.644 15.2773 11.572 14.9933 11.428 14.7293C11.276 14.4573 11.052 14.2413 10.756 14.0813C10.46 13.9213 10.1 13.8413 9.676 13.8413C9.044 13.8413 8.56 14.0093 8.224 14.3453C7.88 14.6733 7.708 15.0773 7.708 15.5573C7.708 16.0373 7.88 16.4413 8.224 16.7693C8.56 17.0893 9.044 17.2493 9.676 17.2493C10.308 17.2493 10.796 17.0933 11.14 16.7813C11.476 16.4613 11.644 16.0613 11.644 15.5813ZM4.12 9.20098L13 9.20098L13 10.881L4.12 10.881L4.12 9.20098ZM4.12 5.86114L13 5.86114L13 7.54114L4.12 7.54114L4.12 5.86114Z" fill="black"/>
<path d="M8.2929 111.707C8.68342 112.098 9.31659 112.098 9.70711 111.707L16.0711 105.343C16.4616 104.953 16.4616 104.319 16.0711 103.929C15.6805 103.538 15.0474 103.538 14.6569 103.929L9 109.586L3.34315 103.929C2.95262 103.538 2.31946 103.538 1.92893 103.929C1.53841 104.319 1.53841 104.953 1.92893 105.343L8.2929 111.707ZM8 53L8 111L10 111L10 53L8 53Z" fill="black"/>
</svg>
